<svg width="125" height="24" viewBox="0 0 125 24" fill="none" xmlns="http://www.w3.org/2000/svg">
<circle cx="4" cy="12" r="4" fill="#FD5D47"/>
<path d="M27.2784 10.4375H24.7898C24.7443 10.1155 24.6515 9.82955 24.5114 9.57955C24.3712 9.32576 24.1913 9.10985 23.9716 8.93182C23.7519 8.75379 23.4981 8.61742 23.2102 8.52273C22.9261 8.42803 22.6174 8.38068 22.2841 8.38068C21.6818 8.38068 21.1572 8.5303 20.7102 8.82955C20.2633 9.125 19.9167 9.55682 19.6705 10.125C19.4242 10.6894 19.3011 11.375 19.3011 12.1818C19.3011 13.0114 19.4242 13.7083 19.6705 14.2727C19.9205 14.8371 20.2689 15.2633 20.7159 15.5511C21.1629 15.839 21.6799 15.983 22.267 15.983C22.5966 15.983 22.9015 15.9394 23.1818 15.8523C23.4659 15.7652 23.7178 15.6383 23.9375 15.4716C24.1572 15.3011 24.339 15.0947 24.483 14.8523C24.6307 14.6098 24.733 14.3333 24.7898 14.0227L27.2784 14.0341C27.214 14.5682 27.053 15.0833 26.7955 15.5795C26.5417 16.072 26.1989 16.5133 25.767 16.9034C25.339 17.2898 24.8277 17.5966 24.233 17.8239C23.642 18.0473 22.9735 18.1591 22.2273 18.1591C21.1894 18.1591 20.2614 17.9242 19.4432 17.4545C18.6288 16.9848 17.9848 16.3049 17.5114 15.4148C17.0417 14.5246 16.8068 13.447 16.8068 12.1818C16.8068 10.9129 17.0455 9.83333 17.5227 8.94318C18 8.05303 18.6477 7.375 19.4659 6.90909C20.2841 6.43939 21.2045 6.20455 22.2273 6.20455C22.9015 6.20455 23.5265 6.29924 24.1023 6.48864C24.6818 6.67803 25.1951 6.95455 25.642 7.31818C26.089 7.67803 26.4527 8.11932 26.733 8.64205C27.017 9.16477 27.1989 9.76326 27.2784 10.4375ZM34.4338 14.2841V9.27273H36.8542V18H34.5303V16.4148H34.4394C34.2425 16.9261 33.9148 17.3371 33.4565 17.6477C33.0019 17.9583 32.447 18.1136 31.7917 18.1136C31.2084 18.1136 30.6951 17.9811 30.2519 17.7159C29.8088 17.4508 29.4622 17.0739 29.2122 16.5852C28.9659 16.0966 28.8409 15.5114 28.8372 14.8295V9.27273H31.2576V14.3977C31.2614 14.9129 31.3997 15.3201 31.6724 15.6193C31.9451 15.9186 32.3106 16.0682 32.769 16.0682C33.0606 16.0682 33.3334 16.0019 33.5872 15.8693C33.8409 15.733 34.0455 15.5322 34.2008 15.267C34.3599 15.0019 34.4375 14.6742 34.4338 14.2841ZM38.6303 18V9.27273H40.9769V10.7955H41.0678C41.2269 10.2538 41.4939 9.8447 41.8689 9.56818C42.2439 9.28788 42.6757 9.14773 43.1644 9.14773C43.2856 9.14773 43.4163 9.1553 43.5564 9.17045C43.6966 9.18561 43.8197 9.20644 43.9257 9.23295V11.3807C43.8121 11.3466 43.6549 11.3163 43.4541 11.2898C43.2534 11.2633 43.0697 11.25 42.903 11.25C42.547 11.25 42.2288 11.3277 41.9485 11.483C41.672 11.6345 41.4523 11.8466 41.2894 12.1193C41.1303 12.392 41.0507 12.7064 41.0507 13.0625V18H38.6303ZM45.0172 18V9.27273H47.3638V10.7955H47.4547C47.6138 10.2538 47.8808 9.8447 48.2558 9.56818C48.6308 9.28788 49.0626 9.14773 49.5513 9.14773C49.6725 9.14773 49.8031 9.1553 49.9433 9.17045C50.0834 9.18561 50.2066 9.20644 50.3126 9.23295V11.3807C50.199 11.3466 50.0418 11.3163 49.841 11.2898C49.6403 11.2633 49.4566 11.25 49.2899 11.25C48.9338 11.25 48.6156 11.3277 48.3353 11.483C48.0588 11.6345 47.8391 11.8466 47.6763 12.1193C47.5172 12.392 47.4376 12.7064 47.4376 13.0625V18H45.0172ZM54.9751 18.1705C54.0773 18.1705 53.3046 17.9886 52.6569 17.625C52.0129 17.2576 51.5167 16.7386 51.1682 16.0682C50.8198 15.3939 50.6455 14.5966 50.6455 13.6761C50.6455 12.7784 50.8198 11.9905 51.1682 11.3125C51.5167 10.6345 52.0073 10.1061 52.6398 9.72727C53.2762 9.34848 54.0224 9.15909 54.8785 9.15909C55.4542 9.15909 55.9902 9.25189 56.4864 9.4375C56.9864 9.61932 57.422 9.89394 57.7932 10.2614C58.1682 10.6288 58.4599 11.0909 58.6682 11.6477C58.8766 12.2008 58.9807 12.8485 58.9807 13.5909V14.2557H51.6114V12.7557H56.7023C56.7023 12.4072 56.6266 12.0985 56.4751 11.8295C56.3235 11.5606 56.1133 11.3504 55.8444 11.1989C55.5792 11.0436 55.2705 10.9659 54.9182 10.9659C54.5508 10.9659 54.2251 11.0511 53.941 11.2216C53.6607 11.3883 53.441 11.6136 53.2819 11.8977C53.1228 12.178 53.0413 12.4905 53.0376 12.8352V14.2614C53.0376 14.6932 53.1171 15.0663 53.2762 15.3807C53.4391 15.6951 53.6682 15.9375 53.9637 16.108C54.2591 16.2784 54.6095 16.3636 55.0148 16.3636C55.2838 16.3636 55.53 16.3258 55.7535 16.25C55.977 16.1742 56.1682 16.0606 56.3273 15.9091C56.4864 15.7576 56.6076 15.572 56.691 15.3523L58.9296 15.5C58.816 16.0379 58.583 16.5076 58.2307 16.9091C57.8823 17.3068 57.4315 17.6174 56.8785 17.8409C56.3292 18.0606 55.6948 18.1705 54.9751 18.1705ZM62.8207 12.9545V18H60.4003V9.27273H62.7071V10.8125H62.8094C63.0026 10.3049 63.3264 9.90341 63.781 9.60795C64.2355 9.30871 64.7866 9.15909 65.4344 9.15909C66.0404 9.15909 66.5688 9.29167 67.0196 9.55682C67.4704 9.82197 67.8207 10.2008 68.0707 10.6932C68.3207 11.1818 68.4457 11.7652 68.4457 12.4432V18H66.0253V12.875C66.0291 12.3409 65.8927 11.9242 65.6162 11.625C65.3397 11.322 64.959 11.1705 64.4741 11.1705C64.1484 11.1705 63.8605 11.2405 63.6105 11.3807C63.3643 11.5208 63.1711 11.7254 63.031 11.9943C62.8946 12.2595 62.8245 12.5795 62.8207 12.9545ZM74.8355 9.27273V11.0909H69.5798V9.27273H74.8355ZM70.773 7.18182H73.1934V15.3182C73.1934 15.5417 73.2275 15.7159 73.2957 15.8409C73.3639 15.9621 73.4586 16.0473 73.5798 16.0966C73.7048 16.1458 73.8487 16.1705 74.0116 16.1705C74.1252 16.1705 74.2389 16.161 74.3525 16.142C74.4661 16.1193 74.5533 16.1023 74.6139 16.0909L74.9945 17.892C74.8733 17.9299 74.7029 17.9735 74.4832 18.0227C74.2635 18.0758 73.9964 18.108 73.682 18.1193C73.0987 18.142 72.5873 18.0644 72.148 17.8864C71.7123 17.7083 71.3733 17.4318 71.1309 17.0568C70.8885 16.6818 70.7692 16.2083 70.773 15.6364V7.18182ZM79.8407 18V6.36364H82.2612V10.7386H82.3351C82.4411 10.5038 82.5945 10.2652 82.7953 10.0227C82.9998 9.77652 83.265 9.57197 83.5907 9.40909C83.9203 9.24242 84.3294 9.15909 84.818 9.15909C85.4544 9.15909 86.0415 9.32576 86.5794 9.65909C87.1173 9.98864 87.5472 10.4867 87.8691 11.1534C88.1911 11.8163 88.3521 12.6477 88.3521 13.6477C88.3521 14.6212 88.1949 15.4432 87.8805 16.1136C87.5699 16.7803 87.1457 17.286 86.6078 17.6307C86.0737 17.9716 85.4752 18.142 84.8123 18.142C84.3426 18.142 83.943 18.0644 83.6135 17.9091C83.2877 17.7538 83.0207 17.5587 82.8123 17.3239C82.604 17.0852 82.4449 16.8447 82.3351 16.6023H82.2271V18H79.8407ZM82.2101 13.6364C82.2101 14.1553 82.282 14.608 82.426 14.9943C82.5699 15.3807 82.7782 15.6818 83.051 15.8977C83.3237 16.1098 83.6551 16.2159 84.0453 16.2159C84.4392 16.2159 84.7726 16.108 85.0453 15.892C85.318 15.6723 85.5245 15.3693 85.6646 14.983C85.8085 14.5928 85.8805 14.1439 85.8805 13.6364C85.8805 13.1326 85.8104 12.6894 85.6703 12.3068C85.5301 11.9242 85.3237 11.625 85.051 11.4091C84.7782 11.1932 84.443 11.0852 84.0453 11.0852C83.6513 11.0852 83.318 11.1894 83.0453 11.3977C82.7763 11.6061 82.5699 11.9015 82.426 12.2841C82.282 12.6667 82.2101 13.1174 82.2101 13.6364ZM89.8072 18V9.27273H92.2276V18H89.8072ZM91.0231 8.14773C90.6632 8.14773 90.3545 8.02841 90.0969 7.78977C89.8431 7.54735 89.7162 7.25758 89.7162 6.92045C89.7162 6.58712 89.8431 6.30114 90.0969 6.0625C90.3545 5.82008 90.6632 5.69886 91.0231 5.69886C91.3829 5.69886 91.6897 5.82008 91.9435 6.0625C92.2011 6.30114 92.3299 6.58712 92.3299 6.92045C92.3299 7.25758 92.2011 7.54735 91.9435 7.78977C91.6897 8.02841 91.3829 8.14773 91.0231 8.14773ZM97.2224 18.142C96.5596 18.142 95.9592 17.9716 95.4213 17.6307C94.8872 17.286 94.463 16.7803 94.1486 16.1136C93.838 15.4432 93.6827 14.6212 93.6827 13.6477C93.6827 12.6477 93.8437 11.8163 94.1656 11.1534C94.4876 10.4867 94.9156 9.98864 95.4497 9.65909C95.9876 9.32576 96.5766 9.15909 97.2168 9.15909C97.7054 9.15909 98.1126 9.24242 98.4384 9.40909C98.7679 9.57197 99.0331 9.77652 99.2338 10.0227C99.4384 10.2652 99.5937 10.5038 99.6997 10.7386H99.7736V6.36364H102.188V18H99.802V16.6023H99.6997C99.5861 16.8447 99.4251 17.0852 99.2168 17.3239C99.0122 17.5587 98.7452 17.7538 98.4156 17.9091C98.0899 18.0644 97.6921 18.142 97.2224 18.142ZM97.9895 16.2159C98.3796 16.2159 98.7092 16.1098 98.9781 15.8977C99.2509 15.6818 99.4592 15.3807 99.6031 14.9943C99.7509 14.608 99.8247 14.1553 99.8247 13.6364C99.8247 13.1174 99.7527 12.6667 99.6088 12.2841C99.4649 11.9015 99.2565 11.6061 98.9838 11.3977C98.7111 11.1894 98.3796 11.0852 97.9895 11.0852C97.5918 11.0852 97.2565 11.1932 96.9838 11.4091C96.7111 11.625 96.5046 11.9242 96.3645 12.3068C96.2243 12.6894 96.1543 13.1326 96.1543 13.6364C96.1543 14.1439 96.2243 14.5928 96.3645 14.983C96.5084 15.3693 96.7149 15.6723 96.9838 15.892C97.2565 16.108 97.5918 16.2159 97.9895 16.2159Z" fill="#686A6C"/>
</svg>
