<svg width="40" height="40" viewBox="0 0 40 40" fill="none" xmlns="http://www.w3.org/2000/svg">
<path fill-rule="evenodd" clip-rule="evenodd" d="M24.0002 2.30617C21.525 0.87711 18.4754 0.877109 16.0002 2.30617L6.67969 7.68737C4.20448 9.11643 2.67969 11.7574 2.67969 14.6156V25.378C2.67969 28.2361 4.20448 30.8771 6.67969 32.3062L16.0002 37.6874C18.4754 39.1164 21.525 39.1164 24.0002 37.6874L33.3207 32.3062C35.7959 30.8771 37.3207 28.2361 37.3207 25.378V14.6156C37.3207 11.7574 35.7959 9.11643 33.3207 7.68737L24.0002 2.30617ZM20.0002 29.9968C25.523 29.9968 30.0002 25.5196 30.0002 19.9968C30.0002 14.4739 25.523 9.99677 20.0002 9.99677C14.4773 9.99677 10.0002 14.4739 10.0002 19.9968C10.0002 25.5196 14.4773 29.9968 20.0002 29.9968Z" fill="#010101"/>
<circle cx="19.9991" cy="19.9991" r="4.44444" fill="#010101"/>
</svg>
